<svg version="1.1" id="Layer_1" xmlns="http://www.w3.org/2000/svg" xmlns:xlink="http://www.w3.org/1999/xlink" x="0px" y="0px"
	 width="100%" viewBox="0 0 273 273" enable-background="new 0 0 273 273" xml:space="preserve">
<path fill="#FEFFFE" opacity="1.000000" stroke="none" 
	d="
M132.000000,274.000000 
	C88.000000,274.000000 44.500000,274.000000 1.000000,274.000000 
	C1.000000,183.000000 1.000000,92.000000 1.000000,1.000000 
	C92.000000,1.000000 183.000000,1.000000 274.000000,1.000000 
	C274.000000,92.000000 274.000000,183.000000 274.000000,274.000000 
	C226.833328,274.000000 179.666672,274.000000 132.000000,274.000000 
M243.440140,217.845322 
	C246.541855,217.696320 249.643570,217.547333 253.182327,217.377335 
	C252.115540,169.276367 255.554230,121.517494 247.935822,74.138672 
	C241.652771,118.596939 243.187119,163.327011 242.827774,208.396820 
	C211.433258,208.396820 180.549850,208.396820 149.231003,208.396820 
	C149.231003,196.610229 149.246521,185.146896 149.226624,173.683609 
	C149.206955,162.352951 149.279190,151.020050 149.076157,139.692352 
	C148.870438,128.214279 148.631104,116.726006 147.937622,105.270576 
	C147.256271,94.015480 145.985764,82.796043 144.973785,71.560951 
	C144.558701,71.581253 144.143631,71.601547 143.728546,71.621841 
	C137.335739,120.231865 139.746597,169.119797 138.978729,217.967606 
	C173.896072,217.967606 208.180893,217.967606 243.440140,217.845322 
M112.858032,206.720337 
	C113.665779,207.811981 114.473534,208.903625 115.281281,209.995270 
	C115.732994,209.789215 116.184708,209.583145 116.636414,209.377090 
	C114.367744,200.919220 112.823936,192.183136 109.703407,184.052200 
	C97.015663,150.992706 83.856537,118.113953 70.835716,85.182602 
	C69.230858,81.123695 67.412788,77.149078 65.098343,71.745964 
	C59.561005,87.756844 54.566113,102.199272 49.274750,117.498917 
	C47.544415,115.354874 46.380699,114.002464 45.315048,112.576759 
	C41.031582,106.846008 37.023483,100.885071 32.409122,95.436447 
	C30.155279,92.775124 26.793148,91.052383 23.932663,88.904816 
	C23.259769,89.357880 22.586878,89.810951 21.913984,90.264023 
	C22.573202,93.495171 22.351984,97.316994 24.051510,99.850204 
	C29.886250,108.547112 36.157036,116.985703 42.776428,125.102943 
	C45.017857,127.851570 45.218391,129.788040 44.225060,132.948685 
	C37.947731,152.922256 31.761578,172.927887 25.894732,193.024933 
	C24.201923,198.823685 23.658564,204.958008 22.588223,210.938477 
	C43.014233,176.650162 51.663193,138.029755 65.864128,100.530960 
	C81.650650,136.563705 93.293381,172.991486 112.858032,206.720337 
M161.592590,82.981041 
	C161.039948,87.771317 160.073700,92.555382 160.001709,97.352867 
	C159.529694,128.808807 159.300278,160.268372 158.844559,191.724625 
	C158.789520,195.523849 160.141525,196.548996 163.780548,196.526154 
	C185.262558,196.391418 206.746780,196.355042 228.227890,196.548218 
	C232.495224,196.586578 233.557953,195.119080 233.496429,191.082932 
	C233.085312,164.119400 232.899231,137.152527 232.590561,110.187302 
	C232.541107,105.866554 232.335251,101.542221 232.034134,97.231255 
	C231.744522,93.085114 231.357788,88.937622 230.792221,84.821167 
	C230.231216,80.738014 229.393951,76.692818 228.677856,72.630974 
	C222.036270,110.376823 224.485153,148.418869 223.622025,186.474609 
	C205.303360,186.474609 187.427063,186.474609 169.322311,186.474609 
	C167.684784,147.997101 171.788544,109.568123 163.328049,71.577415 
	C162.808838,75.087379 162.289627,78.597343 161.592590,82.981041 
z"/>
<path fill="#31BB51" opacity="1.000000" stroke="none" 
	d="
M242.952942,217.906464 
	C208.180893,217.967606 173.896072,217.967606 138.978729,217.967606 
	C139.746597,169.119797 137.335739,120.231865 143.728546,71.621841 
	C144.143631,71.601547 144.558701,71.581253 144.973785,71.560951 
	C145.985764,82.796043 147.256271,94.015480 147.937622,105.270576 
	C148.631104,116.726006 148.870438,128.214279 149.076157,139.692352 
	C149.279190,151.020050 149.206955,162.352951 149.226624,173.683609 
	C149.246521,185.146896 149.231003,196.610229 149.231003,208.396820 
	C180.549850,208.396820 211.433258,208.396820 242.827774,208.396820 
	C243.187119,163.327011 241.652771,118.596939 247.935822,74.138672 
	C255.554230,121.517494 252.115540,169.276367 253.182327,217.377335 
	C249.643570,217.547333 246.541855,217.696320 242.952942,217.906464 
z"/>
<path fill="#34BC54" opacity="1.000000" stroke="none" 
	d="
M112.648598,206.412048 
	C93.293381,172.991486 81.650650,136.563705 65.864128,100.530960 
	C51.663193,138.029755 43.014233,176.650162 22.588223,210.938477 
	C23.658564,204.958008 24.201923,198.823685 25.894732,193.024933 
	C31.761578,172.927887 37.947731,152.922256 44.225060,132.948685 
	C45.218391,129.788040 45.017857,127.851570 42.776428,125.102943 
	C36.157036,116.985703 29.886250,108.547112 24.051510,99.850204 
	C22.351984,97.316994 22.573202,93.495171 21.913984,90.264023 
	C22.586878,89.810951 23.259769,89.357880 23.932663,88.904816 
	C26.793148,91.052383 30.155279,92.775124 32.409122,95.436447 
	C37.023483,100.885071 41.031582,106.846008 45.315048,112.576759 
	C46.380699,114.002464 47.544415,115.354874 49.274750,117.498917 
	C54.566113,102.199272 59.561005,87.756844 65.098343,71.745964 
	C67.412788,77.149078 69.230858,81.123695 70.835716,85.182602 
	C83.856537,118.113953 97.015663,150.992706 109.703407,184.052200 
	C112.823936,192.183136 114.367744,200.919220 116.636414,209.377090 
	C116.184708,209.583145 115.732994,209.789215 115.281281,209.995270 
	C114.473534,208.903625 113.665779,207.811981 112.648598,206.412048 
z"/>
<path fill="#33BC53" opacity="1.000000" stroke="none" 
	d="
M161.681503,82.544174 
	C162.289627,78.597343 162.808838,75.087379 163.328049,71.577415 
	C171.788544,109.568123 167.684784,147.997101 169.322311,186.474609 
	C187.427063,186.474609 205.303360,186.474609 223.622025,186.474609 
	C224.485153,148.418869 222.036270,110.376823 228.677856,72.630974 
	C229.393951,76.692818 230.231216,80.738014 230.792221,84.821167 
	C231.357788,88.937622 231.744522,93.085114 232.034134,97.231255 
	C232.335251,101.542221 232.541107,105.866554 232.590561,110.187302 
	C232.899231,137.152527 233.085312,164.119400 233.496429,191.082932 
	C233.557953,195.119080 232.495224,196.586578 228.227890,196.548218 
	C206.746780,196.355042 185.262558,196.391418 163.780548,196.526154 
	C160.141525,196.548996 158.789520,195.523849 158.844559,191.724625 
	C159.300278,160.268372 159.529694,128.808807 160.001709,97.352867 
	C160.073700,92.555382 161.039948,87.771317 161.681503,82.544174 
z"/>
</svg>